<svg xmlns="http://www.w3.org/2000/svg" xmlns:xlink="http://www.w3.org/1999/xlink" width="250" height="111" viewBox="0 0 250 111">
  <defs>
    <clipPath id="clip-path">
      <rect id="Rectangle_1" data-name="Rectangle 1" width="82" height="82"/>
    </clipPath>
    <clipPath id="clip-logo-templedubienetre">
      <rect width="250" height="111"/>
    </clipPath>
  </defs>
  <g id="logo-templedubienetre" clip-path="url(#clip-logo-templedubienetre)">
    <rect width="250" height="111" fill="#fff"/>
    <g id="Groupe_1" data-name="Groupe 1" transform="translate(-75 -113)">
      <g id="lotus-logo" transform="translate(159 110)" clip-path="url(#clip-path)">
        <g id="Pétale_centrale" data-name="Pétale centrale" transform="translate(70.922 57.678) rotate(113.003)">
          <path id="Tracé_1" data-name="Tracé 1" d="M5.412,35.55C2.01,31.367,0,24.81,0,17.775S2.01,4.183,5.412,0c3.4,4.183,5.413,10.741,5.413,17.775S8.815,31.367,5.412,35.55Z" transform="translate(0.815 1.249)" fill="#872d83"/>
          <path id="Tracé_2" data-name="Tracé 2" d="M6.227,35.452A22.883,22.883,0,0,0,9.2,29.445a33.265,33.265,0,0,0,1.621-10.421A33.268,33.268,0,0,0,9.2,8.6,22.882,22.882,0,0,0,6.227,2.6,22.881,22.881,0,0,0,3.251,8.6,33.269,33.269,0,0,0,1.63,19.024,33.268,33.268,0,0,0,3.251,29.445a22.883,22.883,0,0,0,2.977,6.007m0,2.6C2.471,33.93,0,26.946,0,19.024S2.471,4.118,6.227,0c3.756,4.118,6.228,11.1,6.228,19.024S9.984,33.93,6.227,38.048Z" transform="translate(0 0)" fill="#fff"/>
        </g>
        <path id="pétale_droite_niveau_5" data-name="pétale droite niveau 5" d="M4.107,20.456c9.236,0,0-20.456,0-20.456S-5.133,20.456,4.107,20.456Z" transform="translate(79.544 47.758) rotate(90)" fill="#872d83" stroke="#fff" stroke-width="2"/>
        <path id="pétale_droite_niveau_5-2" data-name="pétale droite niveau 5" d="M4.107,0c9.236,0,0,20.456,0,20.456S-5.133,0,4.107,0Z" transform="translate(22.494 47.758) rotate(90)" fill="#872d83" stroke="#fff" stroke-width="2"/>
        <g id="Pétale_centrale-2" data-name="Pétale centrale" transform="translate(27.031 1.887)">
          <path id="Tracé_3" data-name="Tracé 3" d="M36.943,41.8a25.33,25.33,0,0,1-8.588-7.78,20.112,20.112,0,0,1-2.482-5.107,18.474,18.474,0,0,1,0-11.223,20.112,20.112,0,0,1,2.482-5.107A25.327,25.327,0,0,1,36.943,4.8a25.328,25.328,0,0,1,8.588,7.78,20.111,20.111,0,0,1,2.482,5.107,18.472,18.472,0,0,1,0,11.223A20.11,20.11,0,0,1,45.53,34.02,25.33,25.33,0,0,1,36.943,41.8Z" transform="translate(-24.185 -3.87)" fill="#efb100"/>
          <path id="Tracé_4" data-name="Tracé 4" d="M36.758,40.647a24.371,24.371,0,0,0,7.911-7.293,19.3,19.3,0,0,0,2.382-4.9,17.658,17.658,0,0,0,0-10.73,19.3,19.3,0,0,0-2.382-4.9,24.371,24.371,0,0,0-7.911-7.292,24.369,24.369,0,0,0-7.911,7.292,19.3,19.3,0,0,0-2.382,4.9,17.66,17.66,0,0,0,0,10.73,19.3,19.3,0,0,0,2.382,4.9,24.37,24.37,0,0,0,7.911,7.293m0,1.874C29.062,38.314,24,31.181,24,23.089S29.062,7.864,36.758,3.658C44.453,7.864,49.515,15,49.515,23.089S44.453,38.314,36.758,42.521Z" transform="translate(-24 -3.658)" fill="#fff"/>
        </g>
        <g id="Pétale_centrale-3" data-name="Pétale centrale" transform="translate(45.687 42.803) rotate(66.997)">
          <path id="Tracé_5" data-name="Tracé 5" d="M5.412,35.55C2.01,31.367,0,24.81,0,17.775S2.01,4.183,5.412,0c3.4,4.184,5.413,10.741,5.413,17.775S8.815,31.367,5.412,35.55Z" transform="translate(0.815 1.249)" fill="#872d83"/>
          <path id="Tracé_6" data-name="Tracé 6" d="M6.227,2.6A22.881,22.881,0,0,0,3.251,8.6,33.268,33.268,0,0,0,1.63,19.024,33.27,33.27,0,0,0,3.251,29.445a22.88,22.88,0,0,0,2.977,6.007A22.881,22.881,0,0,0,9.2,29.445a33.267,33.267,0,0,0,1.621-10.422A33.266,33.266,0,0,0,9.2,8.6,22.882,22.882,0,0,0,6.227,2.6m0-2.6c3.756,4.118,6.228,11.1,6.228,19.024S9.984,33.93,6.227,38.048C2.471,33.93,0,26.946,0,19.024S2.471,4.118,6.227,0Z" transform="translate(0 0)" fill="#fff"/>
        </g>
        <g id="Pétale_centrale-4" data-name="Pétale centrale" transform="translate(74.292 27.163) rotate(71)">
          <path id="Tracé_7" data-name="Tracé 7" d="M10.72,36.947a23.867,23.867,0,0,1-7.68-7.723A21.119,21.119,0,0,1,.792,24.107a20.427,20.427,0,0,1,0-11.267A21.121,21.121,0,0,1,3.04,7.723,23.865,23.865,0,0,1,10.72,0,23.868,23.868,0,0,1,18.4,7.723a21.119,21.119,0,0,1,2.248,5.117,20.424,20.424,0,0,1,0,11.267A21.119,21.119,0,0,1,18.4,29.223,23.868,23.868,0,0,1,10.72,36.947Z" transform="translate(0.815 0.958)" fill="#efb100"/>
          <path id="Tracé_8" data-name="Tracé 8" d="M11.535,36.934a22.967,22.967,0,0,0,6.983-7.176A20.3,20.3,0,0,0,20.68,24.84a19.61,19.61,0,0,0,0-10.817A20.305,20.305,0,0,0,18.518,9.1a22.966,22.966,0,0,0-6.983-7.175A22.965,22.965,0,0,0,4.552,9.1a20.306,20.306,0,0,0-2.161,4.919,19.61,19.61,0,0,0,0,10.817,20.308,20.308,0,0,0,2.161,4.919,22.966,22.966,0,0,0,6.983,7.175m0,1.928C4.577,34.657,0,27.523,0,19.431S4.577,4.206,11.535,0C18.493,4.206,23.07,11.339,23.07,19.431S18.493,34.657,11.535,38.863Z" transform="translate(0 0)" fill="#fff"/>
        </g>
        <g id="Pétale_centrale-5" data-name="Pétale centrale" transform="translate(44.256 39.815) rotate(109)">
          <path id="Tracé_9" data-name="Tracé 9" d="M10.72,36.947a23.866,23.866,0,0,1-7.68-7.723A21.12,21.12,0,0,1,.792,24.107a20.427,20.427,0,0,1,0-11.267A21.121,21.121,0,0,1,3.04,7.723,23.867,23.867,0,0,1,10.72,0,23.868,23.868,0,0,1,18.4,7.723a21.119,21.119,0,0,1,2.248,5.117,20.425,20.425,0,0,1,0,11.267A21.118,21.118,0,0,1,18.4,29.224,23.868,23.868,0,0,1,10.72,36.947Z" transform="translate(0.815 0.958)" fill="#efb100"/>
          <path id="Tracé_10" data-name="Tracé 10" d="M11.535,1.928A22.965,22.965,0,0,0,4.552,9.1a20.3,20.3,0,0,0-2.161,4.919,19.611,19.611,0,0,0,0,10.817,20.3,20.3,0,0,0,2.161,4.919,22.963,22.963,0,0,0,6.983,7.175,22.966,22.966,0,0,0,6.983-7.175A20.3,20.3,0,0,0,20.68,24.84a19.61,19.61,0,0,0,0-10.817A20.3,20.3,0,0,0,18.518,9.1a22.968,22.968,0,0,0-6.983-7.176m0-1.928C18.493,4.206,23.07,11.34,23.07,19.431S18.493,34.657,11.535,38.863C4.577,34.657,0,27.523,0,19.431S4.577,4.206,11.535,0Z" transform="translate(0 0)" fill="#fff"/>
        </g>
        <g id="pétale_droite_niveau_3" data-name="pétale droite niveau 3" transform="matrix(0.755, 0.656, -0.656, 0.755, 68.821, 7.536)">
          <path id="Tracé_11" data-name="Tracé 11" d="M7.67,39.625C2.855,35.032,0,27.691,0,19.812S2.855,4.592,7.67,0c4.815,4.592,7.67,11.934,7.67,19.812S12.485,35.032,7.67,39.625Z" transform="translate(0.815 1.107)" fill="#efb100"/>
          <path id="Tracé_12" data-name="Tracé 12" d="M8.485,39.583C12.8,35.117,15.34,28.264,15.34,20.919S12.8,6.72,8.485,2.255C4.169,6.72,1.63,13.573,1.63,20.919s2.54,14.2,6.855,18.664m0,2.255C3.367,37.31,0,29.63,0,20.919S3.367,4.528,8.485,0C13.6,4.528,16.97,12.207,16.97,20.919S13.6,37.31,8.485,41.838Z" transform="translate(0 0)" fill="#fff"/>
        </g>
        <g id="pétale_droite_niveau_3-2" data-name="pétale droite niveau 3" transform="matrix(-0.755, 0.656, -0.656, -0.755, 39.249, 39.111)">
          <path id="Tracé_13" data-name="Tracé 13" d="M7.67,39.625C2.855,35.033,0,27.691,0,19.812S2.855,4.592,7.67,0c4.815,4.592,7.67,11.934,7.67,19.812S12.485,35.033,7.67,39.625Z" transform="translate(0.815 1.107)" fill="#efb100"/>
          <path id="Tracé_14" data-name="Tracé 14" d="M8.485,2.255C4.17,6.72,1.63,13.574,1.63,20.919s2.539,14.2,6.855,18.664C12.8,35.117,15.34,28.264,15.34,20.919S12.8,6.721,8.485,2.255M8.485,0C13.6,4.528,16.97,12.208,16.97,20.919S13.6,37.31,8.485,41.838C3.367,37.31,0,29.63,0,20.919S3.367,4.528,8.485,0Z" transform="translate(0 0)" fill="#fff"/>
        </g>
        <g id="pétale_droite_niveau_2" data-name="pétale droite niveau 2" transform="matrix(0.946, 0.326, -0.326, 0.946, 48.084, 9.362)">
          <path id="Tracé_15" data-name="Tracé 15" d="M6.927,30.277A19.424,19.424,0,0,1,0,15.139,19.424,19.424,0,0,1,6.927,0a19.424,19.424,0,0,1,6.928,15.139A19.424,19.424,0,0,1,6.927,30.277Z" transform="translate(0.815 1.033)" fill="#efb100"/>
          <path id="Tracé_16" data-name="Tracé 16" d="M7.742,30.245a18.7,18.7,0,0,0,6.113-14.073A18.7,18.7,0,0,0,7.742,2.1,18.7,18.7,0,0,0,1.63,16.171,18.7,18.7,0,0,0,7.742,30.245m0,2.1A20.132,20.132,0,0,1,0,16.171,20.131,20.131,0,0,1,7.742,0a20.132,20.132,0,0,1,7.743,16.171A20.132,20.132,0,0,1,7.742,32.343Z" transform="translate(0 0)" fill="#fff"/>
        </g>
        <g id="pétale_droite_niveau_2-2" data-name="pétale droite niveau 2" transform="translate(42.968 40.15) rotate(162)">
          <path id="Tracé_17" data-name="Tracé 17" d="M6.927,30.277A19.424,19.424,0,0,1,0,15.139,19.424,19.424,0,0,1,6.927,0a19.424,19.424,0,0,1,6.928,15.139A19.424,19.424,0,0,1,6.927,30.277Z" transform="translate(0.815 1.033)" fill="#efb100"/>
          <path id="Tracé_18" data-name="Tracé 18" d="M7.742,2.1A18.7,18.7,0,0,0,1.63,16.171,18.7,18.7,0,0,0,7.742,30.245a18.7,18.7,0,0,0,6.113-14.074A18.7,18.7,0,0,0,7.742,2.1m0-2.1a20.132,20.132,0,0,1,7.743,16.171A20.132,20.132,0,0,1,7.742,32.343,20.131,20.131,0,0,1,0,16.171,20.132,20.132,0,0,1,7.742,0Z" transform="translate(0 0)" fill="#fff"/>
        </g>
        <path id="Soustraction_3" data-name="Soustraction 3" d="M5.415,15.783a5.233,5.233,0,0,1-4.4-2.341A4.368,4.368,0,0,1,.091,9.756C.5,8.086,2.1,6.464,4.84,4.933c4.426-.768,9.041-1.765,13.716-2.965C20.949,1.354,23.333.692,25.642,0a87.049,87.049,0,0,1-8.819,9.5C12.224,13.67,8.386,15.782,5.415,15.783Z" transform="translate(38.63 37.748) rotate(-12.007)" fill="#efb100" stroke="#fff" stroke-width="2"/>
        <path id="Soustraction_4" data-name="Soustraction 4" d="M5.415,0a5.233,5.233,0,0,0-4.4,2.341A4.368,4.368,0,0,0,.091,6.027C.505,7.7,2.1,9.32,4.84,10.85c4.426.768,9.041,1.765,13.716,2.965,2.393.615,4.777,1.276,7.086,1.968a87.05,87.05,0,0,0-8.819-9.508C12.224,2.113,8.386,0,5.415,0Z" transform="translate(38.428 53.186) rotate(-167.993)" fill="#efb100" stroke="#fff" stroke-width="2"/>
        <path id="pétale_droite_niveau_5-3" data-name="pétale droite niveau 5" d="M9.157,37.635c20.6,0,0-37.635,0-37.635S-11.446,37.635,9.157,37.635Z" transform="translate(31.038 13.019)" fill="#efb100" stroke="#fff" stroke-width="2"/>
        <path id="pétale_centre_niveau_4" data-name="pétale centre niveau 4" d="M9.238,51.125c12.442,0,0,22.727,0,22.727S-3.2,51.125,9.238,51.125Z" transform="translate(30.551 -0.471)" fill="#872d83" stroke="#fff" stroke-width="2"/>
      </g>
      <text id="HAMMAM_MASSAGE_INSTITUT_" data-name="HAMMAM • MASSAGE • INSTITUT " transform="translate(200 223)" fill="#efb100" font-size="12" font-family="Raleway-Regular, Raleway"><tspan x="-96.252" y="0">HAMMAM </tspan><tspan y="0" fill="#872d83">•</tspan><tspan y="0" xml:space="preserve"> MASSAGE </tspan><tspan y="0" fill="#872d83">• </tspan><tspan y="0">INSTITUT</tspan><tspan y="0" font-size="20"> </tspan></text>
      <text id="LE_TEMPLE_DU_BIEN_ETRE" data-name="LE TEMPLE DU BIEN ETRE" transform="translate(200 202)" fill="#872d83" font-size="20" font-family="Raleway-Regular, Raleway"><tspan x="-123.4" y="0">LE TEMPLE DU BIEN ETRE</tspan></text>
    </g>
  </g>
</svg>
